<?xml version="1.0" encoding="UTF-8"?>
<svg xmlns="http://www.w3.org/2000/svg" width="1400" height="500" viewBox="0 0 1400 500">
  <defs>
    <style>
      .primary { fill: #FF6A00; }
      .graphite { fill: #1F1F1F; }
      .white { fill: #FFFFFF; }
      .no-fill { fill: none; }
    </style>
  </defs>

  <!-- Símbolo -->
  <g id="mrq-symbol" transform="translate(80,70)">
    <!-- vapor -->
    <path class="primary" d="M210 35 C190 60, 195 85, 215 105 C235 125, 235 150, 215 170 C200 185, 190 200, 190 220
                              C190 250, 215 270, 240 270 C275 270, 295 245, 290 215
                              C286 192, 270 178, 260 165 C245 145, 252 125, 270 108
                              C292 88, 302 60, 285 35 Z" opacity="0.95"/>
    <path class="primary" d="M270 25 C255 45, 258 70, 275 90 C292 110, 292 135, 275 152
                              C262 165, 255 178, 255 195 C255 220, 275 238, 300 238
                              C330 238, 350 215, 345 190
                              C341 170, 328 158, 320 147 C307 130, 312 112, 326 98
                              C344 80, 352 55, 338 25 Z" opacity="0.95"/>
    <path class="primary" d="M150 45 C135 65, 138 88, 155 108 C172 128, 172 150, 155 168
                              C142 182, 135 197, 135 215 C135 242, 156 262, 182 262
                              C214 262, 235 238, 230 210
                              C226 188, 212 176, 204 165 C191 148, 196 130, 210 116
                              C228 98, 236 73, 222 45 Z" opacity="0.95"/>

    <!-- chapéu -->
    <g transform="translate(55,130) rotate(-18)">
      <rect x="0" y="0" rx="10" ry="10" width="70" height="65" class="graphite"/>
      <rect x="0" y="30" rx="0" ry="0" width="70" height="12" class="primary"/>
      <rect x="-10" y="60" rx="12" ry="12" width="90" height="16" class="graphite"/>
    </g>

    <!-- cloche (domo + base) -->
    <path class="graphite" d="M120 285
                              C135 195, 205 150, 285 150
                              C365 150, 435 195, 450 285
                              C450 300, 438 310, 424 310
                              L146 310
                              C132 310, 120 300, 120 285 Z"/>
    <!-- botão superior -->
    <circle cx="285" cy="145" r="12" class="graphite"/>
    <rect x="276" y="130" width="18" height="10" rx="5" class="graphite"/>

    <!-- brilhos (recortes) -->
    <path class="white" d="M170 245 C185 205, 220 185, 260 175 C215 175, 185 195, 170 245 Z" opacity="0.35"/>
    <path class="white" d="M380 245 C368 205, 335 185, 295 175 C340 175, 368 195, 380 245 Z" opacity="0.25"/>

    <!-- base -->
    <path class="graphite" d="M105 310 H465
                              C480 310, 492 322, 492 337
                              C492 352, 480 364, 465 364
                              H105
                              C90 364, 78 352, 78 337
                              C78 322, 90 310, 105 310 Z"/>

    <!-- gravata borboleta -->
    <g transform="translate(285,370)">
      <path class="primary" d="M-55 -8 C-80 -30, -115 -25, -118 0 C-121 25, -80 30, -55 8 Z"/>
      <path class="primary" d="M55 -8 C80 -30, 115 -25, 118 0 C121 25, 80 30, 55 8 Z"/>
      <circle cx="0" cy="0" r="10" class="primary"/>
    </g>
  </g>

  <!-- Wordmark -->
  <g id="mrq-wordmark" transform="translate(620,170)">
    <text x="0" y="40" class="primary" font-family="Poppins, Montserrat, Arial, sans-serif" font-size="72" font-weight="800" font-style="italic">Mr</text>
    <text x="0" y="170" class="graphite" font-family="Poppins, Montserrat, Arial, sans-serif" font-size="160" font-weight="800" font-style="italic" letter-spacing="-2">Quentinha</text>
  </g>
</svg>
