<?xml version="1.0" encoding="UTF-8"?>
<svg xmlns="http://www.w3.org/2000/svg" width="1024" height="1024" viewBox="0 0 1024 1024">
  <defs>
    <style>
      .primary { fill: #FF6A00; }
      .graphite { fill: #1F1F1F; }
      .white { fill: #FFFFFF; }
    </style>
  </defs>

  <!-- fundo arredondado -->
  <rect x="64" y="64" width="896" height="896" rx="180" ry="180" class="primary"/>

  <!-- símbolo central -->
  <g transform="translate(160,145) scale(1.25)">
    <!-- vapor -->
    <path class="white" d="M240 35 C220 60, 225 85, 245 105 C265 125, 265 150, 245 170 C230 185, 220 200, 220 220
                            C220 250, 245 270, 270 270 C305 270, 325 245, 320 215
                            C316 192, 300 178, 290 165 C275 145, 282 125, 300 108
                            C322 88, 332 60, 315 35 Z" opacity="0.95"/>
    <path class="white" d="M300 25 C285 45, 288 70, 305 90 C322 110, 322 135, 305 152
                            C292 165, 285 178, 285 195 C285 220, 305 238, 330 238
                            C360 238, 380 215, 375 190
                            C371 170, 358 158, 350 147 C337 130, 342 112, 356 98
                            C374 80, 382 55, 368 25 Z" opacity="0.95"/>
    <path class="white" d="M180 45 C165 65, 168 88, 185 108 C202 128, 202 150, 185 168
                            C172 182, 165 197, 165 215 C165 242, 186 262, 212 262
                            C244 262, 265 238, 260 210
                            C256 188, 242 176, 234 165 C221 148, 226 130, 240 116
                            C258 98, 266 73, 252 45 Z" opacity="0.95"/>

    <!-- chapéu -->
    <g transform="translate(88,148) rotate(-18)">
      <rect x="0" y="0" rx="10" ry="10" width="70" height="65" class="graphite"/>
      <rect x="0" y="30" width="70" height="12" class="white"/>
      <rect x="-10" y="60" rx="12" ry="12" width="90" height="16" class="graphite"/>
    </g>

    <!-- cloche -->
    <path class="graphite" d="M150 300
                              C165 210, 235 165, 315 165
                              C395 165, 465 210, 480 300
                              C480 315, 468 325, 454 325
                              L176 325
                              C162 325, 150 315, 150 300 Z"/>
    <circle cx="315" cy="160" r="12" class="graphite"/>
    <rect x="306" y="145" width="18" height="10" rx="5" class="graphite"/>

    <!-- base -->
    <path class="graphite" d="M105 325 H465
                              C480 325, 492 337, 492 352
                              C492 367, 480 379, 465 379
                              H105
                              C90 379, 78 367, 78 352
                              C78 337, 90 325, 105 325 Z"/>

    <!-- gravata -->
    <g transform="translate(285,405)">
      <path class="white" d="M-55 -8 C-80 -30, -115 -25, -118 0 C-121 25, -80 30, -55 8 Z"/>
      <path class="white" d="M55 -8 C80 -30, 115 -25, 118 0 C121 25, 80 30, 55 8 Z"/>
      <circle cx="0" cy="0" r="10" class="white"/>
    </g>
  </g>
</svg>
